<svg width="18" height="18" viewBox="0 0 18 18" fill="none" xmlns="http://www.w3.org/2000/svg">
<path d="M15.2501 2.33329H12.7501V1.08329C12.7501 0.972786 12.7062 0.866805 12.628 0.788665C12.5499 0.710525 12.4439 0.666626 12.3334 0.666626C12.2229 0.666626 12.1169 0.710525 12.0388 0.788665C11.9606 0.866805 11.9167 0.972786 11.9167 1.08329V2.33329H6.08342V1.08329C6.08342 0.972786 6.03952 0.866805 5.96138 0.788665C5.88324 0.710525 5.77726 0.666626 5.66675 0.666626C5.55624 0.666626 5.45026 0.710525 5.37212 0.788665C5.29398 0.866805 5.25008 0.972786 5.25008 1.08329V2.33329H2.75008C2.19775 2.33395 1.66823 2.55366 1.27767 2.94422C0.887116 3.33478 0.66741 3.86429 0.666748 4.41663V15.25C0.66741 15.8023 0.887116 16.3318 1.27767 16.7224C1.66823 17.1129 2.19775 17.3326 2.75008 17.3333H15.2501C15.8025 17.3329 16.3321 17.1132 16.7227 16.7226C17.1133 16.332 17.333 15.8024 17.3334 15.25V4.41663C17.333 3.86423 17.1133 3.33458 16.7227 2.94397C16.3321 2.55337 15.8025 2.33373 15.2501 2.33329ZM16.5001 15.25C16.5001 15.94 15.9401 16.5 15.2501 16.5H2.75008C2.05841 16.5 1.50008 15.94 1.50008 15.25V8.16663H16.5001V15.25ZM16.5001 7.33329H1.50008V4.41663C1.50008 3.72663 2.05841 3.16663 2.75008 3.16663H5.25008V4.41663C5.25008 4.52713 5.29398 4.63311 5.37212 4.71125C5.45026 4.78939 5.55624 4.83329 5.66675 4.83329C5.77726 4.83329 5.88324 4.78939 5.96138 4.71125C6.03952 4.63311 6.08342 4.52713 6.08342 4.41663V3.16663H11.9167V4.41663C11.9167 4.52713 11.9606 4.63311 12.0388 4.71125C12.1169 4.78939 12.2229 4.83329 12.3334 4.83329C12.4439 4.83329 12.5499 4.78939 12.628 4.71125C12.7062 4.63311 12.7501 4.52713 12.7501 4.41663V3.16663H15.2501C15.9401 3.16663 16.5001 3.72663 16.5001 4.41663V7.33329Z" fill="black"/>
</svg>
